<svg version="1.2" xmlns="http://www.w3.org/2000/svg" viewBox="0 0 120 26" width="120" height="26">
	<title>dark-logo-svg</title>
	<style>
		.s0 { fill: #25ced1 } 
		.s1 { fill: #fa896b } 
		.s2 { fill: #8fab9e } 
		.s3 { fill: #FFFFFF } 
	</style>
	<path id="&lt;Path&gt;" fill-rule="evenodd" class="s0" d="m28 5.1h-9.6l-4.4 6 6.8 9h-10.6v3.1h17.8l-6.8-9.1z"/>
	<path id="&lt;Path&gt; copy 2" fill-rule="evenodd" class="s0" d="m28 5.1h-9.6l-4.4 6 6.8 9h-10.6v3.1h17.8l-6.8-9.1z"/>
	<path id="&lt;Path&gt;" fill-rule="evenodd" class="s1" d="m18.4 5.1l2.4-3.1h-17.8v18.1h7.2v-15z"/>
	<path id="&lt;Path&gt;" fill-rule="evenodd" class="s2" d="m14 11.1l4.4-6h-8.2v15h10.6z"/>
	<path id="&lt;Path&gt; copy" fill-rule="evenodd" class="s2" d="m14 11.1l4.4-6h-8.2v15h10.6z"/>
	<g id="Layer 1">
		<g id="Layer">
		</g>
		<path id="Key" class="s3" aria-label="Key"  d="m44.8 19.6l-6.6-7.4 6.3-7.3h-3.5l-5.7 6.7v-6.7h-2.9v14.7h2.9v-6.8l6 6.8zm11-4.4c0-0.5 0-0.9 0-1.2 0-3.2-2.3-5.4-5.5-5.4-3.2 0-5.6 2.4-5.6 5.7 0 3.2 2.5 5.6 5.9 5.6 2.1 0 4-0.9 4.9-2.3l-2.1-1.4c-0.5 0.9-1.6 1.4-2.8 1.4-1.6 0-2.9-0.9-3.2-2.4zm-8.5-1.9c0.4-1.5 1.5-2.4 3-2.4 1.6 0 2.7 0.9 2.9 2.4zm18-4.4l-3 7.5-3.2-7.5h-2.9l4.8 10.7-0.1 0.2c-0.6 1.5-1.3 2-2.4 2-0.6 0-1.1-0.2-1.6-0.4l-0.7 2.2c0.7 0.3 1.6 0.6 2.5 0.6 1 0 1.8-0.4 2.6-1 0.8-0.6 1.5-1.7 2.2-3.4l4.7-10.9z"/>
		<path id="pow" class="s3" aria-label="pow"  d="m80.8 14.3c0-3.1-2.3-5.6-5.2-5.6-1.7 0-3.1 0.7-3.8 2v-1.7h-2.1v14.9h2.1v-6c0.7 1.3 2.1 2 3.8 2 2.9 0 5.2-2.5 5.2-5.6zm-2.1 0c0 2.1-1.4 3.7-3.5 3.7-1.9 0-3.4-1.4-3.4-3.7 0-2.3 1.5-3.8 3.4-3.8 2.1 0 3.5 1.7 3.5 3.8zm3.8 0c0 3.2 2.4 5.6 5.6 5.6 3.3 0 5.6-2.4 5.6-5.6 0-3.2-2.3-5.6-5.6-5.6-3.2 0-5.6 2.4-5.6 5.6zm9.2 0c0 2.1-1.5 3.7-3.6 3.7-2.1 0-3.5-1.6-3.5-3.7 0-2.1 1.4-3.7 3.5-3.7 2.1 0 3.6 1.6 3.6 3.7zm5-5.3h-2.2l3.8 10.6h2.1l2.5-7.5 2.6 7.5h2.1l3.8-10.6h-2.2l-2.7 8-2.6-7.9h-1.9l-2.6 7.9z"/>
	</g>
</svg>